overground_17_grf.mot
version=3
nRows 5150
nColumns  28
inDegrees=no
endheader
            time	ground_force_1_vx	ground_force_1_vy	ground_force_1_vz	ground_force_1_px	ground_force_1_py	ground_force_1_pz	ground_torque_1_x	ground_torque_1_y	ground_torque_1_z	ground_force_2_vx	ground_force_2_vy	ground_force_2_vz	ground_force_2_px	ground_force_2_py	ground_force_2_pz	ground_torque_2_x	ground_torque_2_y	ground_torque_2_z	ground_force_3_vx	ground_force_3_vy	ground_force_3_vz	ground_force_3_px	ground_force_3_py	ground_force_3_pz	ground_torque_3_x	ground_torque_3_y	ground_torque_3_z	
      1.93100000	      0.00000000	      0.00000000	      0.00000000	      0.00000000	      0.00000000	      0.00000000	      0.00000000	      0.00000000	      0.00000000	      5.62710724	     45.82825777	      0.63552492	      0.56238571	      0.00000000	     -0.13812148	      0.00000000	      0.12561810	      0.00000000	   -113.73390758	    679.43138888	     57.45304471	      1.04455487	      0.00000000	     -0.27391696	      0.00000000	      1.01764108	      0.00000000	
      1.93150000	      0.00000000	      0.00000000	      0.00000000	      0.00000000	      0.00000000	      0.00000000	      0.00000000	      0.00000000	      0.00000000	      4.97903946	     44.32211793	      0.46258919	      0.56253015	      0.00000000	     -0.13773109	      0.00000000	      0.11390953	      0.00000000	   -113.77993666	    680.88425287	     57.49107410	      1.04469339	      0.00000000	     -0.27390393	      0.00000000	      1.03062360	      0.00000000	
      1.93200000	      0.00000000	      0.00000000	      0.00000000	      0.00000000	      0.00000000	      0.00000000	      0.00000000	      0.00000000	      0.00000000	      4.35404685	     42.85099254	      0.29650664	      0.56267494	      0.00000000	     -0.13733965	      0.00000000	      0.10271472	      0.00000000	   -113.81717463	    682.35152258	     57.51790720	      1.04482965	      0.00000000	     -0.27388952	      0.00000000	      1.04363093	      0.00000000	
      1.93250000	      0.00000000	      0.00000000	      0.00000000	      0.00000000	      0.00000000	      0.00000000	      0.00000000	      0.00000000	      0.00000000	      3.75236279	     41.41385352	      0.13739131	      0.56282163	      0.00000000	     -0.13694797	      0.00000000	      0.09202632	      0.00000000	   -113.84554892	    683.83282421	     57.53398004	      1.04496365	      0.00000000	     -0.27387377	      0.00000000	      1.05664855	      0.00000000	
      1.93300000	      0.00000000	      0.00000000	      0.00000000	      0.00000000	      0.00000000	      0.00000000	      0.00000000	      0.00000000	      0.00000000	      3.17419650	     40.00969074	     -0.01465372	      0.56297178	      0.00000000	     -0.13655685	      0.00000000	      0.08183691	      0.00000000	   -113.86499168	    685.32781029	     57.53974384	      1.04509538	      0.00000000	     -0.27385674	      0.00000000	      1.06966203	      0.00000000	
      1.93350000	      0.00000000	      0.00000000	      0.00000000	      0.00000000	      0.00000000	      0.00000000	      0.00000000	      0.00000000	      0.00000000	      2.61973143	     38.63751630	     -0.15953694	      0.56312699	      0.00000000	     -0.13616713	      0.00000000	      0.07213898	      0.00000000	   -113.87543888	    686.83615691	     57.53566237	      1.04522485	      0.00000000	     -0.27383849	      0.00000000	      1.08265707	      0.00000000	
      1.93400000	      0.00000000	      0.00000000	      0.00000000	      0.00000000	      0.00000000	      0.00000000	      0.00000000	      0.00000000	      0.00000000	      2.08912367	     37.29636865	     -0.29717908	      0.56328887	      0.00000000	     -0.13577967	      0.00000000	      0.06292492	      0.00000000	   -113.87682953	    688.35756090	     57.52220937	      1.04535208	      0.00000000	     -0.27381908	      0.00000000	      1.09561962	      0.00000000	
      1.93450000	      0.00000000	      0.00000000	      0.00000000	      0.00000000	      0.00000000	      0.00000000	      0.00000000	      0.00000000	      0.00000000	      1.58250033	     35.98531644	     -0.42751371	      0.56345899	      0.00000000	     -0.13539532	      0.00000000	      0.05418696	      0.00000000	   -113.86910502	    689.89173700	     57.49986605	      1.04547706	      0.00000000	     -0.27379855	      0.00000000	      1.10853595	      0.00000000	
